<svg xmlns="http://www.w3.org/2000/svg" width="88" height="89" viewBox="0 0 88 89" fill="none">
    <path fill-rule="evenodd" clip-rule="evenodd" d="M87.998 44.9706C87.998 69.2712 68.2985 88.9707 43.9979 88.9707C19.6973 88.9707 -0.00215912 69.2712 -0.00215912 44.9706C-0.00215912 20.67 19.6973 0.970497 43.9979 0.970497C68.2985 0.970497 87.998 20.67 87.998 44.9706ZM27.3875 62.0907C26.0206 60.7238 26.0206 58.5078 27.3875 57.1409L39.0553 45.4731L27.3863 33.804C26.0195 32.4372 26.0195 30.2211 27.3863 28.8543C28.7531 27.4874 30.9692 27.4874 32.3361 28.8543L44.0051 40.5233L55.6718 28.8566C57.0387 27.4898 59.2547 27.4898 60.6216 28.8566C61.9884 30.2234 61.9884 32.4395 60.6216 33.8064L48.9548 45.4731L60.6204 57.1386C61.9872 58.5054 61.9872 60.7215 60.6204 62.0884C59.2536 63.4552 57.0375 63.4552 55.6706 62.0884L44.0051 50.4228L32.3372 62.0907C30.9704 63.4575 28.7543 63.4575 27.3875 62.0907Z" fill="#FF5C38"/>
</svg>