<svg width="54" height="25" viewBox="0 0 54 25" fill="none" xmlns="http://www.w3.org/2000/svg">
<path d="M4.0138 13.6227C4.01989 12.9208 4.14617 12.2249 4.38725 11.565L1.09154 8.98828C0.373782 10.4078 0 11.9741 0 13.5625C0 15.1508 0.373782 16.7172 1.09154 18.1367L4.35924 15.5785C4.13887 14.9492 4.02222 14.2888 4.0138 13.6227Z" fill="#F0B500"/>
<path d="M13.6689 18.8203C12.6606 19.4884 11.4733 19.8404 10.2611 19.8306C8.95441 19.8295 7.68084 19.4222 6.61923 18.6658C5.55761 17.9094 4.76124 16.842 4.34192 15.6133L1.07422 18.1715C1.92605 19.8669 3.23684 21.2931 4.85957 22.2901C6.48229 23.2872 8.35275 23.8157 10.2611 23.8162C12.7282 23.8267 15.1086 22.9132 16.9272 21.258L13.6689 18.8203Z" fill="#2DA24D"/>
<path d="M10.262 7.42189C11.7063 7.42084 13.1059 7.91896 14.2206 8.83076L16.9654 6.0501C15.1682 4.33012 12.7579 3.38696 10.262 3.42701C8.36557 3.42324 6.50514 3.94084 4.88689 4.92245C3.26863 5.90406 1.95575 7.31135 1.09375 8.98833L4.38946 11.5651C4.8187 10.3577 5.61334 9.31158 6.66459 8.5699C7.71585 7.82821 8.97232 7.42725 10.262 7.42189Z" fill="#E33D2B"/>
<path d="M19.0626 18.4245C19.7441 16.8913 20.0634 15.2236 19.9962 13.5491C19.9975 12.9281 19.9476 12.3081 19.8468 11.6953H10.2305V15.6624H15.8322C15.5437 16.9545 14.7646 18.0866 13.6569 18.8231L16.9152 21.2608C17.8026 20.4563 18.5309 19.4944 19.0626 18.4245Z" fill="#3A7CEB"/>
<path d="M28.0293 6.50759C29.0733 6.50759 29.9853 6.68759 30.7653 7.04759C31.5453 7.40759 32.1453 7.91759 32.5653 8.57759C32.9973 9.22559 33.2133 9.98759 33.2133 10.8636C33.2133 11.7276 32.9973 12.4896 32.5653 13.1496C32.1453 13.7976 31.5453 14.3016 30.7653 14.6616C29.9853 15.0096 29.0733 15.1836 28.0293 15.1836H26.1033V19.6836H23.4933V6.50759H28.0293ZM27.7413 12.9696C28.5573 12.9696 29.2113 12.7956 29.7033 12.4476C30.1953 12.0876 30.4413 11.5596 30.4413 10.8636C30.4413 10.1676 30.1953 9.63959 29.7033 9.27959C29.2113 8.90759 28.5573 8.72159 27.7413 8.72159H26.1033V12.9696H27.7413ZM38.1891 10.1256C39.4491 10.1256 40.4331 10.4856 41.1411 11.2056C41.8491 11.9136 42.2031 12.9276 42.2031 14.2476V19.6836H40.0971C40.0851 19.5876 40.0671 19.4316 40.0431 19.2156C40.0311 18.9876 40.0071 18.7896 39.9711 18.6216C39.6951 19.0536 39.3351 19.3776 38.8911 19.5936C38.4591 19.7976 37.9311 19.8996 37.3071 19.8996C36.6591 19.8996 36.0651 19.7856 35.5251 19.5576C34.9971 19.3296 34.5771 18.9996 34.2651 18.5676C33.9531 18.1236 33.7971 17.6016 33.7971 17.0016C33.7971 16.3776 33.9711 15.8376 34.3191 15.3816C34.6791 14.9136 35.1591 14.5536 35.7591 14.3016C36.3591 14.0496 37.0191 13.9236 37.7391 13.9236C38.3871 13.9236 39.0531 14.0316 39.7371 14.2476C39.7011 12.8676 39.1131 12.1776 37.9731 12.1776C37.0611 12.1776 36.3951 12.5856 35.9751 13.4016L34.1931 12.3756C34.5291 11.6796 35.0451 11.1336 35.7411 10.7376C36.4371 10.3296 37.2531 10.1256 38.1891 10.1256ZM39.7371 15.9036C39.1371 15.7596 38.6151 15.6876 38.1711 15.6876C37.5831 15.6876 37.1271 15.7956 36.8031 16.0116C36.4791 16.2156 36.3171 16.5096 36.3171 16.8936C36.3171 17.2416 36.4431 17.5116 36.6951 17.7036C36.9591 17.8956 37.2951 17.9916 37.7031 17.9916C38.2431 17.9916 38.7171 17.8416 39.1251 17.5416C39.5331 17.2296 39.7371 16.8036 39.7371 16.2636V15.9036ZM50.5171 10.3596H53.1271L48.9331 20.9076C48.4891 22.0236 47.9671 22.8276 47.3671 23.3196C46.7791 23.8236 46.0411 24.0756 45.1531 24.0756C44.7211 24.0756 44.3131 24.0096 43.9291 23.8776C43.5571 23.7576 43.2331 23.5896 42.9571 23.3736L43.9471 21.4656C44.3071 21.7296 44.7031 21.8616 45.1351 21.8616C45.4111 21.8616 45.6451 21.8016 45.8371 21.6816C46.0411 21.5736 46.2331 21.3756 46.4131 21.0876C46.5931 20.8116 46.8031 20.3976 47.0431 19.8456L42.9931 10.3596H45.8011L48.2671 16.7856L50.5171 10.3596Z" fill="black"/>
</svg>
