<svg width="104" height="25" viewBox="0 0 104 25" fill="none" xmlns="http://www.w3.org/2000/svg">
<g clip-path="url(#clip0_25829_14499)">
<path d="M7.19531 23.8906L13.5149 1.89062L19.1012 12.9985L7.19531 23.8906Z" fill="#087939"/>
<path d="M3.14062 23.8906L9.46023 1.89062L15.0465 12.9985L3.14062 23.8906Z" fill="#EE752E"/>
</g>
<path d="M22.7677 12.6516C22.7677 11.3483 23.0284 10.2093 23.5497 9.23462C24.0711 8.25996 24.7794 7.51762 25.6747 7.00762C26.5814 6.48629 27.5901 6.22562 28.7007 6.22562C29.8114 6.22562 30.8144 6.48629 31.7097 7.00762C32.6164 7.51762 33.3304 8.25996 33.8517 9.23462C34.3844 10.2093 34.6507 11.3483 34.6507 12.6516C34.6507 13.9663 34.3844 15.111 33.8517 16.0856C33.3304 17.0603 32.6164 17.8083 31.7097 18.3296C30.8144 18.8396 29.8114 19.0946 28.7007 19.0946C27.5901 19.0946 26.5814 18.8396 25.6747 18.3296C24.7794 17.8083 24.0711 17.0603 23.5497 16.0856C23.0284 15.111 22.7677 13.9663 22.7677 12.6516ZM25.3687 12.6516C25.3687 13.479 25.5047 14.21 25.7767 14.8446C26.0601 15.4793 26.4511 15.9723 26.9497 16.3236C27.4597 16.6636 28.0434 16.8336 28.7007 16.8336C29.3581 16.8336 29.9361 16.6636 30.4347 16.3236C30.9447 15.9723 31.3357 15.4793 31.6077 14.8446C31.8911 14.21 32.0327 13.479 32.0327 12.6516C32.0327 11.8243 31.8911 11.099 31.6077 10.4756C31.3357 9.84096 30.9447 9.35362 30.4347 9.01362C29.9361 8.66229 29.3581 8.48662 28.7007 8.48662C28.0434 8.48662 27.4597 8.66229 26.9497 9.01362C26.4511 9.35362 26.0601 9.84096 25.7767 10.4756C25.5047 11.099 25.3687 11.8243 25.3687 12.6516ZM42.7173 18.3806C42.1393 18.8566 41.3347 19.0946 40.3033 19.0946C39.3513 19.0946 38.5807 18.8453 37.9913 18.3466C37.4133 17.8366 37.1243 16.93 37.1243 15.6266V12.0736H35.5603V10.0846H37.1243V7.38162H39.4873V10.0846H42.1393V12.0736H39.4873V15.2356C39.4873 15.825 39.5893 16.2726 39.7933 16.5786C39.9973 16.8846 40.326 17.0376 40.7793 17.0376C41.176 17.0376 41.55 16.9186 41.9013 16.6806L42.7173 18.3806ZM48.9589 9.86362C49.9223 9.86362 50.6873 10.1866 51.2539 10.8326C51.8319 11.4673 52.1209 12.3966 52.1209 13.6206V18.8906H49.7579V14.3856C49.7579 12.7763 49.2253 11.9716 48.1599 11.9716C47.5933 11.9716 47.1343 12.1926 46.7829 12.6346C46.4429 13.0653 46.2729 13.6773 46.2729 14.4706V18.8906H43.9099V5.95362H46.2729V11.2576C46.8396 10.3283 47.7349 9.86362 48.9589 9.86362ZM58.2039 9.86362C58.9859 9.86362 59.6772 10.0393 60.2779 10.3906C60.8899 10.7306 61.3602 11.218 61.6889 11.8526C62.0289 12.476 62.1989 13.1956 62.1989 14.0116C62.1989 14.3743 62.1649 14.7426 62.0969 15.1166H56.2489C56.3509 15.774 56.5889 16.2726 56.9629 16.6126C57.3369 16.9413 57.8015 17.1056 58.3569 17.1056C58.7535 17.1056 59.1049 17.0206 59.4109 16.8506C59.7282 16.6693 59.9719 16.403 60.1419 16.0516L61.8759 17.0716C61.6379 17.7176 61.1789 18.2163 60.4989 18.5676C59.8302 18.919 59.0822 19.0946 58.2549 19.0946C57.4615 19.0946 56.7249 18.919 56.0449 18.5676C55.3649 18.2163 54.8152 17.6893 54.3959 16.9866C53.9879 16.284 53.7839 15.4396 53.7839 14.4536C53.7839 13.479 53.9879 12.646 54.3959 11.9546C54.8152 11.2633 55.3592 10.742 56.0279 10.3906C56.6965 10.0393 57.4219 9.86362 58.2039 9.86362ZM58.1359 11.7846C57.6712 11.7846 57.2745 11.932 56.9459 12.2266C56.6172 12.5213 56.3962 12.935 56.2829 13.4676H59.7849C59.7395 12.9236 59.5639 12.51 59.2579 12.2266C58.9632 11.932 58.5892 11.7846 58.1359 11.7846ZM68.5559 9.86362C68.8959 9.86362 69.2132 9.91462 69.5079 10.0166C69.8025 10.1186 70.0292 10.249 70.1879 10.4076L69.2699 12.2266C68.9752 12.0226 68.6409 11.9206 68.2669 11.9206C67.6549 11.9206 67.1619 12.1756 66.7879 12.6856C66.4252 13.1956 66.2439 13.8983 66.2439 14.7936V18.8906H63.8809V10.0846H65.9549C66.0115 10.7646 66.0625 11.2293 66.1079 11.4786C66.3685 10.946 66.7085 10.5436 67.1279 10.2716C67.5472 9.99962 68.0232 9.86362 68.5559 9.86362ZM84.1759 6.44662H86.6409V13.8586C86.6409 14.924 86.4312 15.8533 86.0119 16.6466C85.5925 17.4286 84.9862 18.035 84.1929 18.4656C83.3995 18.885 82.4589 19.0946 81.3709 19.0946C80.2715 19.0946 79.3252 18.885 78.5319 18.4656C77.7385 18.035 77.1322 17.4286 76.7129 16.6466C76.2935 15.8533 76.0839 14.924 76.0839 13.8586V6.44662H78.5489V13.2636C78.5489 14.465 78.7925 15.3603 79.2799 15.9496C79.7785 16.539 80.4755 16.8336 81.3709 16.8336C82.2549 16.8336 82.9405 16.539 83.4279 15.9496C83.9265 15.3603 84.1759 14.465 84.1759 13.2636V6.44662ZM93.5274 6.44662C94.5134 6.44662 95.3748 6.61662 96.1114 6.95662C96.8481 7.29662 97.4148 7.77829 97.8114 8.40162C98.2194 9.01362 98.4234 9.73329 98.4234 10.5606C98.4234 11.3766 98.2194 12.0963 97.8114 12.7196C97.4148 13.3316 96.8481 13.8076 96.1114 14.1476C95.3748 14.4763 94.5134 14.6406 93.5274 14.6406H91.7084V18.8906H89.2434V6.44662H93.5274ZM93.2554 12.5496C94.0261 12.5496 94.6438 12.3853 95.1084 12.0566C95.5731 11.7166 95.8054 11.218 95.8054 10.5606C95.8054 9.90329 95.5731 9.40462 95.1084 9.06462C94.6438 8.71329 94.0261 8.53762 93.2554 8.53762H91.7084V12.5496H93.2554ZM102.657 18.8906H100.192V6.44662H102.657V18.8906Z" fill="black"/>
<defs>
<clipPath id="clip0_25829_14499">
<rect width="22" height="22" fill="white" transform="translate(0 1.89062)"/>
</clipPath>
</defs>
</svg>
