<svg width="68" height="25" viewBox="0 0 68 25" fill="none" xmlns="http://www.w3.org/2000/svg">
<path d="M66.7114 8.65061C66.1073 6.98752 64.5368 5.81118 62.6442 5.81118H62.6039C61.3959 5.81118 60.2683 6.29794 59.5032 7.1092C58.6978 6.25738 57.5703 5.81118 56.4025 5.81118H56.3622C55.275 5.81118 54.3085 6.21681 53.5434 6.82526V6.50076C53.5031 6.17625 53.2615 5.93287 52.8991 5.93287H49.9997C49.6373 5.93287 49.3554 6.21681 49.3554 6.58188V22.2393C49.3554 22.6044 49.6373 22.8883 49.9997 22.8883H52.8991C53.2213 22.8883 53.4629 22.6449 53.5434 22.361V11.0033V10.8816C53.5837 10.3948 53.9461 9.9892 54.5501 9.94863H55.0736C55.3152 9.94863 55.5166 10.0703 55.6777 10.192C55.9193 10.3948 56.0804 10.6788 56.0804 11.0033V22.2393C56.0804 22.6044 56.3622 22.8478 56.7247 22.8478H59.624C59.9864 22.8478 60.2281 22.5638 60.2683 22.2393V11.0033C60.2683 10.6382 60.4294 10.3137 60.7516 10.1109C60.9126 10.0298 61.0737 9.94863 61.275 9.94863H61.7985C62.4026 9.9892 62.8053 10.476 62.8053 11.0033V22.2393C62.8053 22.6044 63.0872 22.8478 63.4496 22.8478H66.3489C66.7114 22.8478 66.9932 22.5638 66.9932 22.2393V10.1515C66.9127 9.34018 66.8322 9.01568 66.7114 8.65061ZM46.9796 6.09512H45.3285V3.45851C45.3285 3.134 45.0869 2.89062 44.7648 2.89062H44.644C42.7916 3.37738 43.1943 5.89231 39.852 6.09512H39.409C39.1271 6.17625 38.9258 6.41963 38.9258 6.70357V9.543C38.9258 9.90807 39.2077 10.192 39.5701 10.192H41.3017V22.2393C41.3017 22.6044 41.5835 22.8478 41.946 22.8478H44.805C45.1675 22.8478 45.4494 22.5638 45.4494 22.2393V10.2326H47.0601C47.4225 10.2326 47.7044 9.94863 47.7044 9.58356V6.74414C47.6239 6.37907 47.342 6.09512 46.9796 6.09512Z" fill="#00CFF8"/>
<path d="M36.591 6.09766H33.6917C33.3292 6.09766 33.0474 6.3816 33.0474 6.70611V12.6283C33.0474 12.9934 32.7252 13.2774 32.3628 13.2774H31.1547C30.7923 13.2774 30.4701 12.9934 30.4701 12.6283V6.74667C30.4701 6.3816 30.1883 6.13822 29.8258 6.13822H26.9667C26.6043 6.13822 26.3224 6.42216 26.3224 6.74667V13.1962C26.3224 15.63 28.0943 17.3742 30.591 17.3742H32.5239C32.846 17.4148 33.1279 17.6988 33.1279 18.0233C33.1279 18.3478 32.8863 18.6317 32.5239 18.6723H28.2554C27.8929 18.6723 27.6111 18.9562 27.6111 19.2807V22.2013C27.6111 22.5663 27.8929 22.8097 28.2554 22.8097H33.0071C35.5038 22.8097 37.2756 21.0655 37.2756 18.6317V6.66554C37.2353 6.3816 36.9534 6.09766 36.591 6.09766ZM8.92626 6.09766H2.60403C2.28188 6.09766 2 6.3816 2 6.70611V22.2418C2 22.6069 2.24161 22.8503 2.56377 22.8909H5.5034C5.86582 22.8909 6.1477 22.6069 6.1477 22.2824V17.861H8.92626C11.2216 17.861 12.8323 16.279 12.8323 14.0075V9.99173C12.8323 7.67962 11.2216 6.09766 8.92626 6.09766ZM8.68465 11.3303V13.0745C8.68465 13.4396 8.36249 13.7236 8.00007 13.7236H6.1477V10.1945H8.00007C8.36249 10.1945 8.68465 10.4785 8.68465 10.8436V11.3303ZM21.0069 18.3072V16.279C21.0069 15.914 20.6848 15.63 20.3224 15.63H19.1143C18.7519 15.63 18.4297 15.914 18.4297 16.279V18.7128C18.4297 19.0779 18.7519 19.3618 19.1143 19.3618H20.3224C20.6445 19.3618 20.8861 19.1996 20.9667 18.9157C20.9667 18.8751 20.9667 18.8751 21.0069 18.8345V18.3072ZM20.5237 6.17878C23.866 6.17878 25.2755 7.84188 25.2755 10.5191V21.2683C25.2755 22.1607 24.5103 22.8503 23.5439 22.8503H18.2284C15.6914 22.8503 14.121 21.1872 14.121 18.8345V15.7112C14.121 13.3585 15.9331 11.6954 18.5103 11.6954H20.4432C20.7251 11.6548 20.9667 11.4114 21.0069 11.0869V10.6813C20.9667 10.3162 20.7251 10.1134 20.4432 10.0729H16.4968C16.1344 10.0729 15.8122 9.78891 15.8122 9.42384V6.78723C15.8122 6.46273 16.0941 6.17878 16.4566 6.17878H20.5237Z" fill="#0F2855"/>
</svg>
