<svg width="87" height="25" viewBox="0 0 87 25" fill="none" xmlns="http://www.w3.org/2000/svg">
<path d="M0 12.8906C0 16.0732 1.26101 19.1255 3.50562 21.3759C5.75023 23.6263 8.79458 24.8906 11.9689 24.8906C15.1433 24.8906 18.1876 23.6263 20.4323 21.3759C22.6769 19.1255 23.9379 16.0732 23.9379 12.8906C23.9379 9.70803 22.6769 6.65578 20.4323 4.40534C18.1876 2.15491 15.1433 0.890625 11.9689 0.890625C8.79458 0.890625 5.75023 2.15491 3.50562 4.40534C1.26101 6.65578 0 9.70803 0 12.8906Z" fill="#5F259F"/>
<path d="M59.3821 17.8276V13.4705C59.3821 12.3983 58.9811 11.8612 57.9784 11.8612C57.5773 11.8612 57.1094 11.9282 56.8421 11.9952V18.3638C56.8421 18.5648 56.6415 18.7659 56.441 18.7659H54.9017C54.7011 18.7659 54.5006 18.5648 54.5006 18.3638V10.9219C54.5006 10.6539 54.7011 10.4528 54.9017 10.3858C55.9043 10.0507 56.9079 9.84966 57.9775 9.84966C60.3848 9.84966 61.7217 11.123 61.7217 13.4696V18.4308C61.7217 18.6319 61.5211 18.8329 61.3206 18.8329H60.3848C59.7832 18.8339 59.3821 18.3638 59.3821 17.8276ZM65.4 15.213L65.3332 15.8162C65.3332 16.6204 65.8679 17.0895 66.7369 17.0895C67.4054 17.0895 68.0069 16.8884 68.6763 16.5533C68.7432 16.5533 68.81 16.4863 68.8769 16.4863C69.0106 16.4863 69.0774 16.5533 69.1443 16.6204C69.2111 16.6874 69.3448 16.8884 69.3448 16.8884C69.4785 17.0895 69.6122 17.3576 69.6122 17.5586C69.6122 17.8937 69.4116 18.2288 69.1443 18.3628C68.409 18.7649 67.539 18.966 66.6032 18.966C65.5337 18.966 64.6638 18.6979 63.9953 18.1618C63.3269 17.5586 62.9258 16.7544 62.9258 15.7482V13.1335C62.9258 11.055 64.2627 9.78169 66.5364 9.78169C68.7432 9.78169 70.0132 10.988 70.0132 13.1335V14.7429C70.0132 14.944 69.8127 15.145 69.6122 15.145H65.4V15.213ZM65.3332 13.7386H67.8742V13.0684C67.8742 12.2642 67.4063 11.7281 66.6042 11.7281C65.802 11.7281 65.3341 12.1972 65.3341 13.0684V13.7386H65.3332ZM82.3842 15.213L82.3173 15.8162C82.3173 16.6204 82.8521 17.0895 83.7211 17.0895C84.3895 17.0895 84.9911 16.8884 85.6605 16.5533C85.7274 16.5533 85.7942 16.4863 85.861 16.4863C85.9947 16.4863 86.0616 16.5533 86.1284 16.6204C86.1953 16.6874 86.329 16.8884 86.329 16.8884C86.4626 17.0895 86.5963 17.3576 86.5963 17.5586C86.5963 17.8937 86.3958 18.2288 86.1284 18.3628C85.3931 18.7649 84.5232 18.966 83.5874 18.966C82.5179 18.966 81.648 18.6979 80.9795 18.1618C80.3111 17.5586 79.91 16.7544 79.91 15.7482V13.1335C79.91 11.055 81.2469 9.78169 83.5205 9.78169C85.7274 9.78169 86.9974 10.988 86.9974 13.1335V14.7429C86.9974 14.944 86.7969 15.145 86.5963 15.145H82.3842V15.213ZM82.3173 13.7386H84.8584V13.0684C84.8584 12.2642 84.3905 11.7281 83.5883 11.7281C82.7862 11.7281 82.3183 12.1972 82.3183 13.0684V13.7386H82.3173ZM42.9996 18.8339H43.9354C44.1359 18.8339 44.3365 18.6328 44.3365 18.4318V13.4705C44.3365 11.191 43.1333 9.85062 41.127 9.85062C40.5254 9.85062 39.8569 9.98466 39.4549 10.1187V7.63808C39.4549 7.10194 38.987 6.63281 38.4523 6.63281H37.5164C37.3159 6.63281 37.1154 6.83387 37.1154 7.03492V18.4308C37.1154 18.6319 37.3159 18.8329 37.5164 18.8329H39.0548C39.2553 18.8329 39.4559 18.6319 39.4559 18.4308V12.1292C39.7901 11.9952 40.258 11.9282 40.5922 11.9282C41.5949 11.9282 41.9959 12.3973 41.9959 13.5376V17.8947C42.0637 18.3638 42.4648 18.8339 42.9996 18.8339ZM53.0969 13.2025V15.6831C53.0969 17.7616 51.6931 19.0349 49.3526 19.0349C47.079 19.0349 45.6084 17.7616 45.6084 15.6831V13.2025C45.6084 11.124 47.0121 9.85062 49.3526 9.85062C51.6931 9.85062 53.0969 11.124 53.0969 13.2025ZM50.7564 13.2025C50.7564 12.3983 50.2885 11.8621 49.4195 11.8621C48.5505 11.8621 48.0826 12.3312 48.0826 13.2025V15.6831C48.0826 16.4873 48.5505 16.9564 49.4195 16.9564C50.2885 16.9564 50.7564 16.4873 50.7564 15.6831V13.2025ZM35.8453 12.0622C35.8453 14.2077 34.2401 15.6821 32.1011 15.6821C31.5663 15.6821 31.0984 15.6151 30.6296 15.414V18.4308C30.6296 18.6319 30.429 18.8329 30.2285 18.8329H28.6901C28.4896 18.8329 28.2891 18.6319 28.2891 18.4308V7.77212C28.2891 7.50404 28.4896 7.30299 28.6901 7.23597C29.6928 6.90088 30.6964 6.69983 31.7659 6.69983C34.1733 6.69983 35.8444 8.17518 35.8444 10.4538V12.0622H35.8453ZM33.438 10.3197C33.438 9.24746 32.7027 8.71036 31.6991 8.71036C31.0975 8.71036 30.6964 8.91142 30.6964 8.91142V13.3365C31.0975 13.5376 31.298 13.6046 31.7659 13.6046C32.7686 13.6046 33.5048 13.0014 33.5048 11.9952V10.3188H33.438V10.3197ZM79.041 12.0622C79.041 14.2077 77.4358 15.6821 75.2968 15.6821C74.762 15.6821 74.2941 15.6151 73.8253 15.414V18.4308C73.8253 18.6319 73.6247 18.8329 73.4242 18.8329H71.8858C71.6853 18.8329 71.4848 18.6319 71.4848 18.4308V7.77212C71.4848 7.50404 71.6853 7.30299 71.8858 7.23597C72.8885 6.90088 73.8921 6.69983 74.9616 6.69983C77.369 6.69983 79.0401 8.17518 79.0401 10.4538V12.0622H79.041ZM76.6337 10.3197C76.6337 9.24746 75.8984 8.71036 74.8948 8.71036C74.2932 8.71036 73.8921 8.91142 73.8921 8.91142V13.3365C74.2932 13.5376 74.4937 13.6046 74.9616 13.6046C75.9643 13.6046 76.7005 13.0014 76.7005 11.9952V10.3188H76.6337V10.3197Z" fill="#5F259F"/>
<path d="M17.4015 9.88261C17.4015 9.41349 17.0005 9.01138 16.5326 9.01138H14.9273L11.25 4.78831C10.9157 4.3862 10.381 4.25217 9.84623 4.3862L8.57619 4.78831C8.37566 4.85532 8.30881 5.12339 8.4425 5.25743L12.4541 9.0784H6.36938C6.16885 9.0784 6.03516 9.21243 6.03516 9.41349V10.0837C6.03516 10.5528 6.43622 10.9549 6.90413 10.9549H7.83995V14.1727C7.83995 16.5863 9.10999 17.9937 11.25 17.9937C11.9184 17.9937 12.4532 17.9267 13.1226 17.6586V19.8041C13.1226 20.4073 13.5905 20.8764 14.1921 20.8764H15.1279C15.3284 20.8764 15.5289 20.6753 15.5289 20.4743V10.8879H17.0673C17.2678 10.8879 17.4015 10.7538 17.4015 10.5528V9.88261ZM13.1216 15.648C12.7205 15.8491 12.1858 15.9161 11.7847 15.9161C10.7152 15.9161 10.1795 15.38 10.1795 14.1727V10.9549H13.1216V15.648Z" fill="white"/>
</svg>
