<svg xmlns="http://www.w3.org/2000/svg" width="89" height="89" viewBox="0 0 89 89" fill="none">
    <path fill-rule="evenodd" clip-rule="evenodd" d="M44.5001 88.9846C68.8007 88.9846 88.5002 69.285 88.5002 44.9845C88.5002 20.6839 68.8007 0.984375 44.5001 0.984375C20.1995 0.984375 0.5 20.6839 0.5 44.9845C0.5 69.285 20.1995 88.9846 44.5001 88.9846ZM62.1811 38.6543C63.548 37.2874 63.548 35.0714 62.1811 33.7045C60.8143 32.3377 58.5982 32.3377 57.2314 33.7045L39.2001 51.7358L31.7755 44.3111C30.4086 42.9443 28.1926 42.9443 26.8257 44.3111C25.4589 45.678 25.4589 47.8941 26.8257 49.2609L36.7252 59.1604C38.0921 60.5273 40.3082 60.5273 41.675 59.1604L62.1811 38.6543Z" fill="#18C156"/>
</svg>